<svg width="230" height="35" viewBox="0 0 230 35" fill="currentColor" xmlns="http://www.w3.org/2000/svg">
<path d="M0.50071 35V0.0909081H12.7053C15.1371 0.0909081 17.1428 0.511363 18.7223 1.35227C20.3018 2.18182 21.478 3.30114 22.2507 4.71023C23.0234 6.10795 23.4098 7.65909 23.4098 9.36364C23.4098 10.8636 23.1428 12.1023 22.6087 13.0795C22.0859 14.0568 21.3928 14.8295 20.5291 15.3977C19.6768 15.9659 18.7507 16.3864 17.7507 16.6591V17C18.8189 17.0682 19.8928 17.4432 20.9723 18.125C22.0518 18.8068 22.9553 19.7841 23.6825 21.0568C24.4098 22.3295 24.7734 23.8864 24.7734 25.7273C24.7734 27.4773 24.3757 29.0511 23.5803 30.4489C22.7848 31.8466 21.5291 32.9545 19.8132 33.7727C18.0973 34.5909 15.8643 35 13.1143 35H0.50071ZM4.72798 31.25H13.1143C15.8757 31.25 17.8359 30.7159 18.995 29.6477C20.1655 28.5682 20.7507 27.2614 20.7507 25.7273C20.7507 24.5455 20.4496 23.4545 19.8473 22.4545C19.245 21.4432 18.3871 20.6364 17.2734 20.0341C16.1598 19.4205 14.8416 19.1136 13.3189 19.1136H4.72798V31.25ZM4.72798 15.4318H12.5689C13.8416 15.4318 14.9893 15.1818 16.0121 14.6818C17.0462 14.1818 17.8643 13.4773 18.4666 12.5682C19.0803 11.6591 19.3871 10.5909 19.3871 9.36364C19.3871 7.82955 18.853 6.52841 17.7848 5.46023C16.7166 4.38068 15.0234 3.84091 12.7053 3.84091H4.72798V15.4318ZM35.9467 0.0909081V35H31.7195V0.0909081H35.9467ZM44.4226 35V0.0909081H48.6499V31.25H64.8771V35H44.4226ZM71.4226 35V0.0909081H75.6499V31.25H91.8771V35H71.4226ZM98.4226 35V0.0909081H119.491V3.84091H102.65V15.6364H118.4V19.3864H102.65V31.25H119.763V35H98.4226ZM125.201 3.84091V0.0909081H151.383V3.84091H140.406V35H136.178V3.84091H125.201ZM162.134 0.0909081V35H157.907V0.0909081H162.134ZM198.292 0.0909081V35H194.201L175.178 7.59091H174.837V35H170.61V0.0909081H174.701L193.792 27.5682H194.133V0.0909081H198.292ZM222.398 12.6364L216.842 0.0909081H219.092L222.978 9.29545L226.864 0.0909081H229.114L223.558 12.6364H222.398ZM216.433 12.6364V0.0909081H218.614V12.6364H216.433ZM227.342 12.6364V0.0909081H229.523V12.6364H227.342ZM208.251 12.6364V1.18182H210.433V12.6364H208.251ZM204.433 2V0.0909081H214.251V2H204.433Z" fill="white"/>
</svg>
